<?xml version="1.0" encoding="iso-8859-1"?>
<!-- Generator: Adobe Illustrator 21.0.0, SVG Export Plug-In . SVG Version: 6.00 Build 0)  -->
<svg version="1.1" id="Capa_1" xmlns="http://www.w3.org/2000/svg" xmlns:xlink="http://www.w3.org/1999/xlink" x="0px" y="0px"
	 viewBox="0 0 591.146 591.146" style="enable-background:new 0 0 591.146 591.146;" xml:space="preserve">
<g>
	<g>
		<g id="filled_outline_23_">
			<path style="fill:#87CED9;" d="M443.359,0c-81.618,0-147.786,66.169-147.786,147.786s66.169,147.786,147.786,147.786
				s147.786-66.169,147.786-147.786C591.057,66.208,524.938,0.089,443.359,0z M315.78,157.639h50.405
				c0.601,19.892,3.094,39.686,7.429,59.115h-38.011C324.194,198.999,317.376,178.684,315.78,157.639z M453.212,59.115V20.207
				c7.448,0.571,14.828,1.803,22.06,3.685c5.251,11.439,9.764,23.202,13.508,35.222H453.212z M494.237,78.819
				c4.66,19.38,7.35,39.193,8.01,59.115h-49.036V78.819H494.237z M433.507,59.115h-34.139c3.754-12.04,8.276-23.823,13.527-35.282
				l-0.434-0.187c6.907-1.734,13.951-2.877,21.045-3.438V59.115z M433.507,78.819v59.115H385.9c0.66-19.922,3.35-39.735,8.01-59.115
				H433.507z M366.185,137.934H315.78c1.596-21.045,8.414-41.361,19.823-59.115h38.011
				C369.279,98.248,366.786,118.042,366.185,137.934z M385.89,157.639h47.617v59.115H393.91
				C389.25,197.374,386.56,177.561,385.89,157.639L385.89,157.639z M433.507,236.458v38.907c-7.094-0.552-14.138-1.695-21.045-3.419
				l0.434-0.207c-5.251-11.458-9.774-23.242-13.527-35.282H433.507z M453.212,236.458h35.567
				c-3.744,12.02-8.256,23.784-13.508,35.222c-7.232,1.882-14.611,3.113-22.06,3.685
				C453.212,275.366,453.212,236.458,453.212,236.458z M453.212,216.753v-59.115h49.036c-0.66,19.922-3.35,39.735-8.01,59.115
				H453.212z M521.962,157.639h48.976c-1.596,21.045-8.414,41.361-19.823,59.115h-36.582
				C518.868,197.324,521.361,177.531,521.962,157.639z M521.962,137.934c-0.601-19.892-3.094-39.686-7.429-59.115h36.582
				c11.409,17.754,18.227,38.07,19.823,59.115H521.962z M535.568,59.115h-26.198c-2.542-8.65-5.419-17.242-8.71-25.705
				C513.666,39.942,525.47,48.632,535.568,59.115z M387.782,32.572c-3.429,8.739-6.394,17.606-9.015,26.542H351.18
				C361.712,48.178,374.107,39.183,387.782,32.572z M351.15,236.458h27.587c2.621,8.936,5.586,17.803,9.015,26.542
				C374.077,256.39,361.683,247.404,351.15,236.458z M500.671,262.163c3.291-8.463,6.168-17.055,8.71-25.705h26.188
				C525.47,246.941,513.676,255.631,500.671,262.163z"/>
			<path style="fill:#DADDDF;" d="M9.852,482.769c0,16.326,13.232,29.557,29.557,29.557h216.753
				c16.325,0,29.557-13.232,29.557-29.557v-29.557H9.852V482.769z"/>
			<path style="fill:#4398D1;" d="M256.163,305.425H39.41c-16.325,0-29.557,13.232-29.557,29.557v118.229H285.72V334.983
				C285.72,318.657,272.489,305.425,256.163,305.425z"/>
			<polygon style="fill:#DADDDF;" points="194.231,571.441 177.344,512.326 118.229,512.326 101.342,571.441 68.967,571.441 
				68.967,591.146 226.606,591.146 226.606,571.441 			"/>
			<rect x="256.163" y="78.819" style="fill:#87CED9;" width="19.705" height="19.705"/>
			<rect x="216.753" y="78.819" style="fill:#87CED9;" width="19.705" height="19.705"/>
			<rect x="177.344" y="78.819" style="fill:#87CED9;" width="19.705" height="19.705"/>
			<rect x="137.934" y="78.819" style="fill:#87CED9;" width="19.705" height="19.705"/>
			<rect x="137.934" y="216.753" style="fill:#87CED9;" width="19.705" height="19.705"/>
			<rect x="137.934" y="256.163" style="fill:#87CED9;" width="19.705" height="19.705"/>
			<rect x="315.278" y="433.507" style="fill:#87CED9;" width="19.705" height="19.705"/>
			<circle style="fill:#4398D1;" cx="147.786" cy="157.639" r="29.557"/>
			<circle style="fill:#4398D1;" cx="433.507" cy="443.359" r="29.557"/>
			<rect x="354.688" y="433.507" style="fill:#87CED9;" width="19.705" height="19.705"/>
			<rect x="492.622" y="433.507" style="fill:#87CED9;" width="19.705" height="19.705"/>
			<rect x="492.622" y="394.097" style="fill:#87CED9;" width="19.705" height="19.705"/>
			<rect x="492.622" y="354.688" style="fill:#87CED9;" width="19.705" height="19.705"/>
			<rect x="492.622" y="315.278" style="fill:#87CED9;" width="19.705" height="19.705"/>
			<path style="fill:#3E8CC7;" d="M256.163,305.425h-9.852L98.524,453.212H285.72V334.983
				C285.72,318.657,272.489,305.425,256.163,305.425z"/>
			<polygon style="fill:#C7CACC;" points="182.969,532.031 177.344,512.326 118.229,512.326 112.603,532.031 			"/>
			<path d="M443.359,0c-81.618,0-147.786,66.169-147.786,147.786s66.169,147.786,147.786,147.786s147.786-66.169,147.786-147.786
				C591.057,66.208,524.938,0.089,443.359,0z M315.78,157.639h50.405c0.601,19.892,3.094,39.686,7.429,59.115h-38.011
				C324.194,198.999,317.376,178.684,315.78,157.639z M453.212,59.115V20.207c7.448,0.571,14.828,1.803,22.06,3.685
				c5.251,11.439,9.764,23.202,13.508,35.222H453.212z M494.237,78.819c4.66,19.38,7.35,39.193,8.01,59.115h-49.036V78.819H494.237z
				 M433.507,59.115h-34.139c3.754-12.04,8.276-23.823,13.527-35.282l-0.434-0.187c6.907-1.734,13.951-2.877,21.045-3.438V59.115z
				 M433.507,78.819v59.115H385.9c0.66-19.922,3.35-39.735,8.01-59.115H433.507z M366.185,137.934H315.78
				c1.596-21.045,8.414-41.361,19.823-59.115h38.011C369.279,98.248,366.786,118.042,366.185,137.934z M385.89,157.639h47.617
				v59.115H393.91C389.25,197.374,386.56,177.561,385.89,157.639L385.89,157.639z M433.507,236.458v38.907
				c-7.094-0.552-14.138-1.695-21.045-3.419l0.434-0.207c-5.251-11.458-9.774-23.242-13.527-35.282H433.507z M453.212,236.458
				h35.567c-3.744,12.02-8.256,23.784-13.508,35.222c-7.232,1.882-14.611,3.113-22.06,3.685
				C453.212,275.366,453.212,236.458,453.212,236.458z M453.212,216.753v-59.115h49.036c-0.66,19.922-3.35,39.735-8.01,59.115
				H453.212z M521.962,157.639h48.976c-1.596,21.045-8.414,41.361-19.823,59.115h-36.582
				C518.868,197.324,521.361,177.531,521.962,157.639z M521.962,137.934c-0.601-19.892-3.094-39.686-7.429-59.115h36.582
				c11.409,17.754,18.227,38.07,19.823,59.115H521.962z M535.568,59.115h-26.198c-2.542-8.65-5.419-17.242-8.71-25.705
				C513.666,39.942,525.47,48.632,535.568,59.115z M387.782,32.572c-3.429,8.739-6.394,17.606-9.015,26.542H351.18
				C361.712,48.178,374.107,39.183,387.782,32.572z M351.15,236.458h27.587c2.621,8.936,5.586,17.803,9.015,26.542
				C374.077,256.39,361.683,247.404,351.15,236.458z M500.671,262.163c3.291-8.463,6.168-17.055,8.71-25.705h26.188
				C525.47,246.941,513.676,255.631,500.671,262.163z"/>
			<path d="M39.41,522.179h65.755l-14.079,49.262H68.967v19.705h157.639v-19.705h-22.119l-14.079-49.262h65.755
				c21.764,0,39.41-17.646,39.41-39.41V334.983c0-21.764-17.646-39.41-39.41-39.41H39.41c-21.764,0-39.41,17.646-39.41,39.41
				v147.786C0,504.533,17.646,522.179,39.41,522.179z M183.984,571.441h-72.396l14.069-49.262h44.257L183.984,571.441z
				 M256.163,502.474H39.41c-10.887,0-19.705-8.818-19.705-19.705v-19.705h256.163v19.705
				C275.868,493.656,267.05,502.474,256.163,502.474z M39.41,315.278h216.753c10.887,0,19.705,8.818,19.705,19.705v108.377H19.705
				V334.983C19.705,324.096,28.523,315.278,39.41,315.278z"/>
			<rect x="256.163" y="78.819" width="19.705" height="19.705"/>
			<rect x="216.753" y="78.819" width="19.705" height="19.705"/>
			<rect x="177.344" y="78.819" width="19.705" height="19.705"/>
			<rect x="137.934" y="78.819" width="19.705" height="19.705"/>
			<rect x="137.934" y="216.753" width="19.705" height="19.705"/>
			<rect x="137.934" y="256.163" width="19.705" height="19.705"/>
			<rect x="315.278" y="433.507" width="19.705" height="19.705"/>
			<path d="M187.196,157.639c0-21.764-17.646-39.41-39.41-39.41s-39.41,17.646-39.41,39.41s17.646,39.41,39.41,39.41
				S187.196,179.403,187.196,157.639z M147.786,177.344c-10.887,0-19.705-8.818-19.705-19.705s8.818-19.705,19.705-19.705
				s19.705,8.818,19.705,19.705S158.673,177.344,147.786,177.344z"/>
			<path d="M472.917,443.359c0-21.764-17.646-39.41-39.41-39.41s-39.41,17.646-39.41,39.41c0,21.764,17.646,39.41,39.41,39.41
				S472.917,465.123,472.917,443.359z M413.802,443.359c0-10.887,8.818-19.705,19.705-19.705s19.705,8.818,19.705,19.705
				s-8.818,19.705-19.705,19.705S413.802,454.246,413.802,443.359z"/>
			<rect x="354.688" y="433.507" width="19.705" height="19.705"/>
			<rect x="492.622" y="433.507" width="19.705" height="19.705"/>
			<rect x="492.622" y="394.097" width="19.705" height="19.705"/>
			<rect x="492.622" y="354.688" width="19.705" height="19.705"/>
			<rect x="492.622" y="315.278" width="19.705" height="19.705"/>
		</g>
	</g>
</g>
<g>
</g>
<g>
</g>
<g>
</g>
<g>
</g>
<g>
</g>
<g>
</g>
<g>
</g>
<g>
</g>
<g>
</g>
<g>
</g>
<g>
</g>
<g>
</g>
<g>
</g>
<g>
</g>
<g>
</g>
</svg>
