<?xml version="1.0" encoding="iso-8859-1"?>
<!-- Generator: Adobe Illustrator 19.0.0, SVG Export Plug-In . SVG Version: 6.00 Build 0)  -->
<svg version="1.1" id="Capa_1" xmlns="http://www.w3.org/2000/svg" xmlns:xlink="http://www.w3.org/1999/xlink" x="0px" y="0px"
	 viewBox="0 0 512 512" style="enable-background:new 0 0 512 512;" xml:space="preserve">
<path style="fill:#D2C5C2;" d="M299.599,412.899L151,181L88.599,82.899C85.901,78.699,81.099,76,76,76H15C6.599,76,0,82.599,0,91
	v390c0,8.399,6.599,15,15,15h272c8.401,0,15-6.601,15-15v-60C302,417.999,301.099,415.3,299.599,412.899z"/>
<path style="fill:#C4B3AF;" d="M302,421v60c0,8.399-6.599,15-15,15H151V181l148.599,231.899C301.099,415.3,302,417.999,302,421z"/>
<path style="fill:#EDE9E8;" d="M362,106v315c0,8.399-6.599,15-15,15H76c-8.401,0-15-6.601-15-15V31c0-8.401,6.599-15,15-15h196
	l18.6,67.5L362,106z"/>
<path style="fill:#DFD7D5;" d="M362,106v315c0,8.399-6.599,15-15,15H212V16h60l18.6,67.5L362,106z"/>
<g>
	<path style="fill:#D2C5C2;" d="M197,106h-61c-8.291,0-15-6.709-15-15s6.709-15,15-15h61c8.291,0,15,6.709,15,15
		S205.291,106,197,106z"/>
	<path style="fill:#D2C5C2;" d="M242,181c0,8.399-6.599,15-15,15h-91c-8.401,0-15-6.601-15-15c0-8.401,6.599-15,15-15h91
		C235.401,166,242,172.599,242,181z"/>
	<path style="fill:#D2C5C2;" d="M274.999,271c0,8.399-6.599,15-15,15H136c-8.401,0-15-6.601-15-15c0-8.401,6.599-15,15-15h123.999
		C268.4,256,274.999,262.599,274.999,271z"/>
	<path style="fill:#D2C5C2;" d="M227.3,361c0,8.399-6.601,15-15,15H136c-8.401,0-15-6.601-15-15c0-8.401,6.599-15,15-15h76.3
		C220.699,346,227.3,352.599,227.3,361z"/>
</g>
<g>
	<path style="fill:#C4B3AF;" d="M227.3,361c0,8.399-6.601,15-15,15H212v-30h0.3C220.699,346,227.3,352.599,227.3,361z"/>
	<path style="fill:#C4B3AF;" d="M227,196h-15v-30h15c8.401,0,15,6.599,15,15C242,189.399,235.401,196,227,196z"/>
	<path style="fill:#C4B3AF;" d="M274.999,271c0,8.399-6.599,15-15,15H212v-30h47.999C268.4,256,274.999,262.599,274.999,271z"/>
	<path style="fill:#C4B3AF;" d="M272,91c0,8.399,6.599,15,15,15h75l-90-90V91z"/>
</g>
<path style="fill:#4A696F;" d="M304.701,279.399c-12.301-16.5-31.8-24.3-57.601-16.5c-2.399,2.401-4.799,4.501-6,7.8l-29.1,57.6
	l-13.2,26.1c-2.701,5.7-1.8,12.601,2.999,17.1C204.5,374.5,208.1,376,212,376h0.3c2.401,0,4.499-0.601,6.599-1.5l84.001-42.001
	c2.699-0.901,5.4-3.9,7.5-6C315.5,309.399,315.801,295,304.701,279.399z"/>
<path style="fill:#FF4949;" d="M498.8,74.799c-17.401-17.699-46.199-17.699-63.9,0L424.701,85.3l2.243,23.844l50.555,50.555
	c0-0.3,0-0.3,0-0.3L488,148.9l11.1-11.1c8.399-8.701,12.9-19.801,12.9-31.201C512,94.6,507.201,82.899,498.8,74.799z"/>
<path style="fill:#293939;" d="M493.807,154.472l-5.768-5.773L488,148.9l-31.606-10.644l10.547,31.767l5.654,5.66
	c8.657,8.657,8.622,22.608,0,31.23c-5.947,5.947-14.604,7.998-22.603,5.317c-25.798-8.551-48.364-10.525-67.529,13.345
	c-13.784,17.183-15.366,40.503-4.028,59.399c4.27,7.115,13.495,9.393,20.581,5.142c7.104-4.263,9.404-13.477,5.142-20.581
	c-7.339-12.231-0.542-22.368,1.714-25.181c10.151-12.739,20.246-8.436,34.629-3.662c18.882,6.299,39.258,1.479,53.306-12.568
	C514.219,207.711,514.15,174.785,493.807,154.472z"/>
<path style="fill:#FF4949;" d="M427.099,109.6l-23.699-3.001l-156.301,156.3l11.695,27.458c0.3-0.088,0.608-0.049,0.906-0.157
	c7.798-2.401,15.899,0.298,20.7,6.899c1.888,2.428,4.283,7.628,2.825,14.522l27.175,14.877L467,170.2l10.499-10.501L427.099,109.6z"
	/>
<g>
	<path style="fill:#3E5959;" d="M310.401,326.499c-2.1,2.1-4.801,5.099-7.5,6L218.899,374.5c-2.1,0.899-4.199,1.5-6.599,1.5H212
		v-47.701l29.099-57.599c1.201-3.3,3.602-5.4,6-7.8c25.801-7.8,45.3,0,57.601,16.5C315.801,295,315.5,309.399,310.401,326.499z"/>
	<path style="fill:#3E5959;" d="M488,148.9l-10.501,10.499c0,0,0,0,0,0.3L467,170.2l-63.6-63.602
		c12.998-12.998,8.524-8.524,21.301-21.299L488,148.9z"/>
</g>
<g>
</g>
<g>
</g>
<g>
</g>
<g>
</g>
<g>
</g>
<g>
</g>
<g>
</g>
<g>
</g>
<g>
</g>
<g>
</g>
<g>
</g>
<g>
</g>
<g>
</g>
<g>
</g>
<g>
</g>
</svg>
