<?xml version="1.0" encoding="iso-8859-1"?>
<!-- Generator: Adobe Illustrator 19.0.0, SVG Export Plug-In . SVG Version: 6.00 Build 0)  -->
<svg version="1.1" id="Capa_1" xmlns="http://www.w3.org/2000/svg" xmlns:xlink="http://www.w3.org/1999/xlink" x="0px" y="0px"
	 viewBox="0 0 504.123 504.123" style="enable-background:new 0 0 504.123 504.123;" xml:space="preserve">
<path style="fill:#FFFFFF;" d="M281.994,7.877H31.508c-13.391,0-23.631,10.24-23.631,23.631v194.56
	c0,13.391,10.24,23.631,23.631,23.631h250.486c13.391,0,23.631-10.24,23.631-23.631V31.508
	C305.625,18.117,294.597,7.877,281.994,7.877z"/>
<path style="fill:#183651;" d="M281.994,257.575H31.508C14.178,257.575,0,243.397,0,226.068V31.508C0,14.178,14.178,0,31.508,0
	h250.486c17.329,0,31.508,14.178,31.508,31.508v194.56C313.502,243.397,299.323,257.575,281.994,257.575z M31.508,15.754
	c-8.665,0-15.754,7.089-15.754,15.754v194.56c0,8.665,7.089,15.754,15.754,15.754h250.486c8.665,0,15.754-7.089,15.754-15.754
	V31.508c0-8.665-7.089-15.754-15.754-15.754H31.508z"/>
<rect x="39.385" y="39.385" style="fill:#2CA0DA;" width="234.732" height="153.6"/>
<rect x="7.877" y="334.769" style="fill:#FFFFFF;" width="412.751" height="161.477"/>
<path style="fill:#183651;" d="M420.628,504.123H7.877c-4.726,0-7.877-3.151-7.877-7.877V334.769c0-4.726,3.151-7.877,7.877-7.877
	h412.751c4.726,0,7.877,3.151,7.877,7.877v161.477C428.505,500.972,424.566,504.123,420.628,504.123z M15.754,488.369h396.997
	V342.646H15.754V488.369z"/>
<g>
	<rect x="34.658" y="359.188" style="fill:#E1E6E7;" width="22.843" height="11.028"/>
	<rect x="71.68" y="359.188" style="fill:#E1E6E7;" width="22.843" height="11.028"/>
	<rect x="109.489" y="359.188" style="fill:#E1E6E7;" width="22.843" height="11.028"/>
	<rect x="146.511" y="359.188" style="fill:#E1E6E7;" width="22.843" height="11.028"/>
	<rect x="184.32" y="359.188" style="fill:#E1E6E7;" width="22.843" height="11.028"/>
	<rect x="221.342" y="359.188" style="fill:#E1E6E7;" width="22.843" height="11.028"/>
	<rect x="259.151" y="359.188" style="fill:#E1E6E7;" width="22.843" height="11.028"/>
	<rect x="296.172" y="359.188" style="fill:#E1E6E7;" width="22.843" height="11.028"/>
	<rect x="333.194" y="359.188" style="fill:#E1E6E7;" width="22.843" height="11.028"/>
	<rect x="371.003" y="359.188" style="fill:#E1E6E7;" width="22.843" height="11.028"/>
	<rect x="34.658" y="380.455" style="fill:#E1E6E7;" width="22.843" height="23.631"/>
	<rect x="71.68" y="380.455" style="fill:#E1E6E7;" width="22.843" height="23.631"/>
	<rect x="109.489" y="380.455" style="fill:#E1E6E7;" width="22.843" height="23.631"/>
	<rect x="146.511" y="380.455" style="fill:#E1E6E7;" width="22.843" height="23.631"/>
	<rect x="184.32" y="380.455" style="fill:#E1E6E7;" width="22.843" height="23.631"/>
	<rect x="221.342" y="380.455" style="fill:#E1E6E7;" width="22.843" height="23.631"/>
	<rect x="259.151" y="380.455" style="fill:#E1E6E7;" width="22.843" height="23.631"/>
	<rect x="296.172" y="380.455" style="fill:#E1E6E7;" width="22.843" height="23.631"/>
	<rect x="333.194" y="380.455" style="fill:#E1E6E7;" width="22.843" height="23.631"/>
	<rect x="371.003" y="380.455" style="fill:#E1E6E7;" width="22.843" height="23.631"/>
	<rect x="34.658" y="414.326" style="fill:#E1E6E7;" width="22.843" height="23.631"/>
	<rect x="71.68" y="414.326" style="fill:#E1E6E7;" width="22.843" height="23.631"/>
	<rect x="109.489" y="414.326" style="fill:#E1E6E7;" width="22.843" height="23.631"/>
	<rect x="146.511" y="414.326" style="fill:#E1E6E7;" width="22.843" height="23.631"/>
	<rect x="184.32" y="414.326" style="fill:#E1E6E7;" width="22.843" height="23.631"/>
	<rect x="221.342" y="414.326" style="fill:#E1E6E7;" width="22.843" height="23.631"/>
	<rect x="259.151" y="414.326" style="fill:#E1E6E7;" width="22.843" height="23.631"/>
	<rect x="296.172" y="414.326" style="fill:#E1E6E7;" width="22.843" height="23.631"/>
	<rect x="333.194" y="414.326" style="fill:#E1E6E7;" width="22.843" height="23.631"/>
	<rect x="371.003" y="414.326" style="fill:#E1E6E7;" width="22.843" height="23.631"/>
	<rect x="34.658" y="447.409" style="fill:#E1E6E7;" width="22.843" height="23.631"/>
	<rect x="71.68" y="447.409" style="fill:#E1E6E7;" width="22.843" height="23.631"/>
	<rect x="109.489" y="447.409" style="fill:#E1E6E7;" width="22.843" height="23.631"/>
	<rect x="296.172" y="447.409" style="fill:#E1E6E7;" width="22.843" height="23.631"/>
	<rect x="333.194" y="447.409" style="fill:#E1E6E7;" width="22.843" height="23.631"/>
	<rect x="371.003" y="447.409" style="fill:#E1E6E7;" width="22.843" height="23.631"/>
	<rect x="146.511" y="447.409" style="fill:#E1E6E7;" width="135.483" height="23.631"/>
</g>
<rect x="114.215" y="249.698" style="fill:#FFFFFF;" width="85.071" height="40.172"/>
<path style="fill:#183651;" d="M199.286,297.748h-85.071c-4.726,0-7.877-3.151-7.877-7.877v-40.172c0-4.726,3.151-7.877,7.877-7.877
	h85.071c4.726,0,7.877,3.151,7.877,7.877v40.172C207.163,294.597,204.012,297.748,199.286,297.748z M122.092,281.994h69.317v-24.418
	h-69.317V281.994z"/>
<path style="fill:#183651;" d="M211.102,297.748H102.4c-4.726,0-7.877-3.151-7.877-7.877s3.151-7.877,7.877-7.877h108.702
	c4.726,0,7.877,3.151,7.877,7.877S215.828,297.748,211.102,297.748z"/>
<circle style="fill:#E1E6E7;" cx="156.751" cy="216.615" r="11.028"/>
<path style="fill:#FBBD5E;" d="M496.246,158.326c0-37.022-29.932-66.954-66.954-66.954v101.612h66.954V158.326z"/>
<path style="fill:#183651;" d="M496.246,200.862h-66.954c-4.726,0-7.877-3.151-7.877-7.877V91.372c0-4.726,3.151-7.877,7.877-7.877
	c40.96,0,74.831,33.083,74.831,74.831v34.658C504.123,196.923,500.972,200.862,496.246,200.862z M437.169,185.108h51.2v-26.782
	c0-29.932-22.055-54.351-51.2-58.289V185.108z"/>
<path style="fill:#FFFFFF;" d="M363.126,158.326v34.658h66.166V91.372C393.058,91.372,363.126,121.305,363.126,158.326z"/>
<path style="fill:#183651;" d="M429.292,200.862h-66.954c-4.726,0-7.877-3.151-7.877-7.877v-34.658
	c0-40.96,33.083-74.831,74.831-74.831c4.726,0,7.877,3.151,7.877,7.877v101.612C437.169,196.923,434.018,200.862,429.292,200.862z
	 M371.003,185.108h50.412v-85.071c-28.357,3.938-51.2,28.357-51.2,58.289v26.782H371.003z"/>
<path style="fill:#E1E6E7;" d="M363.126,192.985v70.892c0,13.391,10.24,23.631,23.631,23.631h85.858
	c13.391,0,23.631-10.24,23.631-23.631v-70.892H363.126z"/>
<path style="fill:#183651;" d="M472.615,295.385h-85.858c-17.329,0-31.508-14.178-31.508-31.508v-70.892
	c0-4.726,3.151-7.877,7.877-7.877h133.12c4.726,0,7.877,3.151,7.877,7.877v70.892C504.123,281.206,489.945,295.385,472.615,295.385z
	 M371.003,200.862v63.015c0,8.665,7.089,15.754,15.754,15.754h85.858c8.665,0,15.754-7.089,15.754-15.754v-63.015H371.003z"/>
<ellipse style="fill:#E1E6E7;" cx="429.292" cy="144.148" rx="15.754" ry="24.418"/>
<g>
	<path style="fill:#183651;" d="M429.292,177.231c-13.391,0-23.631-14.178-23.631-32.295s10.24-32.295,23.631-32.295
		s23.631,14.178,23.631,32.295S442.683,177.231,429.292,177.231z M429.292,127.606c-3.151,0-7.877,7.089-7.877,16.542
		s4.726,16.542,7.877,16.542c3.151,0,7.877-7.089,7.877-16.542S432.443,127.606,429.292,127.606z"/>
	<path style="fill:#183651;" d="M429.292,99.249c-4.726,0-7.877-3.151-7.877-7.877V75.618c0-11.815-9.452-21.268-21.268-21.268
		h-94.523c-4.726,0-7.877-3.151-7.877-7.877s3.151-7.877,7.877-7.877h95.311c20.48,0,37.022,16.542,37.022,37.022v15.754
		C437.169,96.098,434.018,99.249,429.292,99.249z"/>
	<path style="fill:#183651;" d="M297.748,342.646c-4.726,0-7.877-3.151-7.877-7.877v-29.145c0-5.514-4.726-10.24-10.24-10.24
		c-14.178,0-25.994-11.815-25.994-25.994v-18.905c0-4.726,3.151-7.877,7.877-7.877s7.877,3.151,7.877,7.877v18.905
		c0,5.514,4.726,10.24,10.24,10.24c14.178,0,25.994,11.815,25.994,25.994v29.145C305.625,339.495,301.686,342.646,297.748,342.646z"
		/>
	<rect x="94.523" y="108.702" style="fill:#183651;" width="15.754" height="15.754"/>
	<rect x="148.874" y="108.702" style="fill:#183651;" width="15.754" height="15.754"/>
	<rect x="203.225" y="108.702" style="fill:#183651;" width="15.754" height="15.754"/>
</g>
<g>
</g>
<g>
</g>
<g>
</g>
<g>
</g>
<g>
</g>
<g>
</g>
<g>
</g>
<g>
</g>
<g>
</g>
<g>
</g>
<g>
</g>
<g>
</g>
<g>
</g>
<g>
</g>
<g>
</g>
</svg>
